<?xml version="1.0" standalone="no"?>
<!DOCTYPE svg PUBLIC "-//W3C//DTD SVG 20010904//EN"
 "http://www.w3.org/TR/2001/REC-SVG-20010904/DTD/svg10.dtd">
<svg version="1.0" xmlns="http://www.w3.org/2000/svg"
 width="502.000000pt" height="497.000000pt" viewBox="0 0 502.000000 497.000000"
 preserveAspectRatio="xMidYMid meet">

<g transform="translate(0.000000,497.000000) scale(0.100000,-0.100000)"
fill="#000000" stroke="none">
<path d="M1020 3061 c45 -40 60 -48 60 -33 0 10 -45 44 -80 61 -16 8 -8 -3 20
-28z"/>
<path d="M1136 3001 c-3 -5 10 -39 29 -77 30 -59 35 -65 35 -39 0 57 -48 143
-64 116z"/>
<path d="M1390 2939 c0 -6 -19 -29 -42 -50 -48 -43 -34 -53 18 -14 43 33 59
61 39 69 -8 3 -15 0 -15 -5z"/>
<path d="M763 2646 c1 -11 9 -21 17 -23 10 -3 11 -2 4 4 -6 4 -14 15 -17 23
-5 11 -6 9 -4 -4z"/>
<path d="M2436 2577 c3 -10 9 -15 12 -12 3 3 0 11 -7 18 -10 9 -11 8 -5 -6z"/>
</g>
</svg>
